<?xml version="1.0" encoding="UTF-8" standalone="no"?>
<svg
   version="1.0"
   width="200.000000pt"
   height="200.000000pt"
   viewBox="0 0 200.000000 200.000000"
   preserveAspectRatio="xMidYMid meet"
   id="svg21"
   sodipodi:docname="QR_Code_1771319867.svg"
   inkscape:version="1.4.3 (0d15f75, 2025-12-25)"
   xmlns:inkscape="http://www.inkscape.org/namespaces/inkscape"
   xmlns:sodipodi="http://sodipodi.sourceforge.net/DTD/sodipodi-0.dtd"
   xmlns="http://www.w3.org/2000/svg"
   xmlns:svg="http://www.w3.org/2000/svg">
  <defs
     id="defs21" />
  <sodipodi:namedview
     id="namedview21"
     pagecolor="#ffffff"
     bordercolor="#000000"
     borderopacity="0.25"
     inkscape:showpageshadow="2"
     inkscape:pageopacity="0.0"
     inkscape:pagecheckerboard="0"
     inkscape:deskcolor="#d1d1d1"
     inkscape:document-units="pt"
     inkscape:zoom="0.34026558"
     inkscape:cx="166.04677"
     inkscape:cy="-11.755524"
     inkscape:window-width="1512"
     inkscape:window-height="949"
     inkscape:window-x="0"
     inkscape:window-y="33"
     inkscape:window-maximized="0"
     inkscape:current-layer="svg21" />
  <metadata
     id="metadata1">
Created by potrace 1.16, written by Peter Selinger 2001-2019
</metadata>
  <g
     id="g21"
     transform="translate(0,2.159651)">
    <rect
       x="0"
       y="0"
       width="200"
       height="200"
       fill="#ffffff"
       id="rect1" />
    <g
       transform="matrix(0.021368,0,0,-0.021368,0,200)"
       fill="#ff00aa"
       stroke="none"
       id="g20">
      <path
         d="m 720,7800 v -840 h 840 840 v 840 840 H 1560 720 Z m 1440,0 V 7200 H 1560 960 v 600 600 h 600 600 z"
         id="path1" />
      <path
         d="m 1200,7800 v -360 h 360 360 v 360 360 h -360 -360 z"
         id="path2" />
      <path
         d="m 3360,8520 v -120 h -240 -240 v -120 -120 h 240 240 v 120 120 h 240 240 v -120 -120 h -120 -120 v -240 -240 h 120 120 v 120 120 h 120 120 v 120 120 h 120 120 v -120 -120 h 120 120 v -600 -600 h 120 120 v -240 -240 h 360 360 v -240 -240 h -120 -120 v -120 -120 h -120 -120 v -240 -240 h 120 120 v -240 -240 h -120 -120 v 120 120 h -120 -120 v 120 120 h -120 -120 v 240 240 h 120 120 v 240 240 h -120 -120 v 240 240 h -120 -120 v -120 -120 h -120 -120 v 120 120 h -240 -240 v 240 240 h 120 120 v 240 240 h -240 -240 v -120 -120 h -120 -120 v -240 -240 h -120 -120 v -240 -240 h 120 120 v -120 -120 h -120 -120 v -120 -120 h -120 -120 v -120 -120 h -120 -120 v 120 120 h -120 -120 v 120 120 h 120 120 v 120 120 h -240 -240 v 120 120 h 360 360 v 120 120 h -360 -360 v -120 -120 h -120 -120 v -120 -120 h -120 -120 v 120 120 h -120 -120 v 120 120 H 960 720 V 6600 6480 H 840 960 V 6360 6240 H 840 720 V 5640 5040 H 840 960 V 4800 4560 H 840 720 v -120 -120 h 120 120 v 120 120 h 120 120 V 4320 4080 H 960 720 V 3960 3840 H 840 960 V 3720 3600 H 840 720 v -480 -480 h 240 240 v 120 120 h 240 240 v 120 120 h 120 120 v -240 -240 h 360 360 v -360 -360 h 120 120 V 1560 1200 H 2760 2640 V 960 720 h 480 480 v 240 240 h 240 240 V 1080 960 h 120 120 V 840 720 h 120 120 v 120 120 h 120 120 V 840 720 h 120 120 v 120 120 h 240 240 V 840 720 h 120 120 v 120 120 h -120 -120 v 120 120 h 240 240 V 960 720 h 600 600 v 120 120 h -480 -480 v 240 240 h 120 120 v 120 120 h 120 120 v -120 -120 h 120 120 v -120 -120 h 120 120 v 120 120 h -120 -120 v 120 120 h 240 240 v -240 -240 h 120 120 V 960 720 h 120 120 v 120 120 h 120 120 V 840 720 h 120 120 v 120 120 h -120 -120 v 120 120 h 240 240 v 360 360 h -120 -120 v 240 240 h 120 120 v 120 120 h -120 -120 v 120 120 h -120 -120 v 120 120 h 120 120 v 360 360 h -120 -120 v 120 120 h -120 -120 v -120 -120 h 120 120 v -360 -360 h -120 -120 v 240 240 h -120 -120 v 120 120 h -120 -120 v 120 120 h 120 120 v 120 120 h 120 120 v 120 120 h -120 -120 v 360 360 h -240 -240 v 120 120 h 120 120 v 120 120 h 120 120 v 120 120 h 120 120 v -120 -120 h 120 120 v -360 -360 h -120 -120 v -120 -120 h 120 120 v -240 -240 h 120 120 v -120 -120 h 120 120 v 240 240 h -120 -120 v 120 120 h 120 120 v 120 120 h -120 -120 v 120 120 h 120 120 v 240 240 h -240 -240 v 120 120 h 120 120 v 240 240 h -240 -240 v 120 120 h -240 -240 v -120 -120 h -120 -120 v -240 -240 h -240 -240 v 120 120 h -120 -120 v 120 120 h 120 120 v 120 120 h -120 -120 v -120 -120 h -120 -120 v 480 480 h 120 120 v 240 240 h 120 120 v 120 120 h -120 -120 v -120 -120 h -240 -240 v 360 360 h -120 -120 v -120 -120 h -120 -120 v -120 -120 h 120 120 v -120 -120 h -240 -240 v 120 120 h -120 -120 v -120 -120 h -120 -120 v 120 120 h -240 -240 v 120 120 h 360 360 v 120 120 h -480 -480 v -120 -120 h -120 -120 v 120 120 h -240 -240 z m 2880,-960 v -120 h -240 -240 v -120 -120 h 120 120 v -240 -240 h -120 -120 v -120 -120 h 120 120 v -120 -120 h 240 240 v -120 -120 h -120 -120 v -240 -240 h 120 120 v 120 120 h 240 240 v -240 -240 h -120 -120 v -120 -120 h -120 -120 v -120 -120 h -120 -120 v 240 240 h -120 -120 v 120 120 h -120 -120 v 360 360 h -120 -120 v 120 120 h -240 -240 v 120 120 h -120 -120 v 240 240 h 120 120 v 120 120 h 360 360 v 120 120 h 240 240 z M 3600,7080 v -120 h -120 -120 v 120 120 h 120 120 z m -240,-480 v -120 h 120 120 v -120 -120 h 120 120 v -120 -120 h -120 -120 v -120 -120 h -120 -120 v -120 -120 h 360 360 v 240 240 h 120 120 v -120 -120 h 120 120 v -120 -120 h -120 -120 v -480 -480 h -360 -360 v -120 -120 h 360 360 v -120 -120 h 120 120 v 120 120 h 120 120 v -120 -120 h 240 240 v -240 -240 h -120 -120 v 120 120 h -120 -120 v 120 120 h -120 -120 v -120 -120 h -240 -240 v -240 -240 h 120 120 v -120 -120 h 120 120 v 240 240 h 120 120 v -240 -240 h 120 120 v 120 120 h 240 240 v 240 240 h 120 120 v 120 120 h 120 120 v -240 -240 h -120 -120 v -120 -120 h 360 360 v 120 120 h -120 -120 v 120 120 h 120 120 v 120 120 h 120 120 v 120 120 h -120 -120 v 120 120 h 240 240 v 240 240 h 240 240 v -120 -120 h -120 -120 v -120 -120 h -120 -120 v -120 -120 h 240 240 v 120 120 h 120 120 v -120 -120 h -120 -120 v -120 -120 h -120 -120 v -120 -120 h 120 120 v -120 -120 h -120 -120 v -120 -120 h -360 -360 v -120 -120 h 120 120 v -120 -120 h -120 -120 v -240 -240 h -120 -120 v -240 -240 h 120 120 v -120 -120 h -120 -120 v -120 -120 h -240 -240 v 120 120 h -120 -120 v 120 120 H 5400 5280 V 1680 1440 H 5160 5040 V 1200 960 h -120 -120 v 120 120 H 4680 4560 V 1080 960 h -120 -120 v 120 120 h 120 120 v 120 120 h 120 120 v 120 120 h -120 -120 v 240 240 h 240 240 v 120 120 h 240 240 v -240 -240 h 120 120 v 240 240 h 120 120 v 120 120 h -120 -120 v 240 240 h -360 -360 v -240 -240 h -120 -120 v 240 240 h -120 -120 v -240 -240 h -120 -120 v 240 240 h -120 -120 v -120 -120 h -120 -120 v -120 -120 h -120 -120 v -120 -120 h 120 120 v -120 -120 h -120 -120 v -240 -240 h 120 120 v 120 120 h 120 120 v -120 -120 h 120 120 v -120 -120 h -360 -360 v -120 -120 h -240 -240 v 120 120 h 120 120 v 120 120 h -120 -120 v 360 360 h 120 120 v 120 120 h -360 -360 v 120 120 h -240 -240 v 120 120 h 360 360 v 120 120 h -120 -120 v 120 120 h 120 120 v -120 -120 h 120 120 v 120 120 h 120 120 v 120 120 h -360 -360 v 120 120 h -120 -120 v -120 -120 h -120 -120 v -120 -120 h 120 120 v -120 -120 h -120 -120 v 120 120 h -240 -240 v 120 120 h -120 -120 v 360 360 h -120 -120 v 240 240 H 1080 960 v 120 120 h 240 240 v 120 120 h 120 120 v -240 -240 h 120 120 v 120 120 h 120 120 v 120 120 h 120 120 v -120 -120 h -120 -120 v -120 -120 h 240 240 v 240 240 h 120 120 v -240 -240 h -120 -120 v -240 -240 h -120 -120 v -120 -120 h 120 120 v -120 -120 h 480 480 v 120 120 h -120 -120 v 120 120 h -120 -120 v -120 -120 h -120 -120 v 240 240 h 240 240 v -120 -120 h 120 120 v 240 240 h 120 120 v 120 120 h -360 -360 v 360 360 h 120 120 v 120 120 h -120 -120 v 240 240 h 120 120 z m 4560,-240 v -120 h 120 120 v -120 -120 h -120 -120 v 120 120 h -120 -120 v 120 120 h 120 120 z M 1200,6120 V 6000 H 1080 960 v 120 120 h 120 120 z m 720,-240 v -120 h -240 -240 v 120 120 h 240 240 z M 1200,5640 V 5520 H 1080 960 v 120 120 h 120 120 z m 4320,-480 v -120 h 240 240 v -240 -240 h 120 120 v -120 -120 h -120 -120 v 120 120 h -120 -120 v -120 -120 h -120 -120 v 360 360 h -120 -120 v 120 120 h 120 120 z m 2880,-240 v -120 h -120 -120 v 120 120 h 120 120 z M 1440,3480 v -120 h 120 120 V 3240 3120 H 1440 1200 V 3000 2880 H 1080 960 v 240 240 h 120 120 v 120 120 h 120 120 z m 6240,-240 v -120 h -120 -120 v -120 -120 h -120 -120 v 120 120 h 120 120 v 120 120 h 120 120 z M 5520,2760 v -120 h -120 -120 v 120 120 h 120 120 z m 2640,0 v -120 h 120 120 v -120 -120 h -120 -120 v -120 -120 h -120 -120 v 120 120 h 120 120 v 120 120 h -120 -120 v 120 120 h 120 120 z m -720,-480 v -360 h -360 -360 v 360 360 h 360 360 z m 960,-480 v -120 h -120 -120 v -120 -120 h -120 -120 v -120 -120 h -120 -120 v 360 360 h 360 360 z"
         id="path3" />
      <path
         d="m 5040,7080 v -120 h 120 120 v 120 120 h -120 -120 z"
         id="path4" />
      <path
         d="m 5520,6960 v -240 h 120 120 v 240 240 h -120 -120 z"
         id="path5" />
      <path
         d="m 1440,4800 v -240 h 120 120 v -120 -120 h 120 120 v -120 -120 h -120 -120 v -120 -120 h 240 240 v 120 120 h 120 120 v 120 120 h -240 -240 v 120 120 h 240 240 v 120 120 h -120 -120 v 120 120 h -120 -120 v -120 -120 h -120 -120 v 120 120 h -120 -120 z"
         id="path6" />
      <path
         d="m 3600,3840 v -240 h 120 120 v 120 120 h 120 120 v 120 120 h -240 -240 z"
         id="path7" />
      <path
         d="m 6720,3960 v -120 h 120 120 v 120 120 h -120 -120 z"
         id="path8" />
      <path
         d="m 3360,3120 v -240 h 120 120 v 120 120 h 120 120 v 120 120 h -240 -240 z"
         id="path9" />
      <path
         d="m 6000,3000 v -120 h 120 120 v 120 120 h -120 -120 z"
         id="path10" />
      <path
         d="m 6000,1800 v -120 h 120 120 v 120 120 h -120 -120 z"
         id="path11" />
      <path
         d="m 6960,2280 v -120 h 120 120 v 120 120 h -120 -120 z"
         id="path12" />
      <path
         d="m 6960,7800 v -840 h 840 840 v 840 840 h -840 -840 z m 1440,0 v -600 h -600 -600 v 600 600 h 600 600 z"
         id="path13" />
      <path
         d="m 7440,7800 v -360 h 360 360 v 360 360 h -360 -360 z"
         id="path14" />
      <path
         d="m 2640,7680 v -240 h 240 240 v 120 120 h -120 -120 v 120 120 h -120 -120 z"
         id="path15" />
      <path
         d="m 2640,7080 v -120 h 120 120 v 120 120 h -120 -120 z"
         id="path16" />
      <path
         d="m 4080,6960 v -240 h 120 120 v 240 240 h -120 -120 z"
         id="path17" />
      <path
         d="m 6480,7080 v -120 h 120 120 v 120 120 h -120 -120 z"
         id="path18" />
      <path
         d="M 720,1560 V 720 h 840 840 v 840 840 H 1560 720 Z m 1440,0 V 960 H 1560 960 v 600 600 h 600 600 z"
         id="path19" />
      <path
         d="m 1200,1560 v -360 h 360 360 v 360 360 h -360 -360 z"
         id="path20" />
    </g>
  </g>
</svg>
