<?xml version="1.0" standalone="no"?>
<!DOCTYPE svg PUBLIC "-//W3C//DTD SVG 20010904//EN"
 "http://www.w3.org/TR/2001/REC-SVG-20010904/DTD/svg10.dtd">
<svg version="1.0" xmlns="http://www.w3.org/2000/svg"
 width="200.000000pt" height="200.000000pt" viewBox="0 0 200.000000 200.000000"
 preserveAspectRatio="xMidYMid meet">
<metadata>
Created by potrace 1.16, written by Peter Selinger 2001-2019
</metadata><g><rect x="0" y="0" width="200" height="200" fill="#ffffff" />
<g transform="translate(0.000000,200.000000) scale(0.028736,-0.028736)"
fill="#000000" stroke="none">
<path d="M0 6120 l0 -840 840 0 840 0 0 840 0 840 -840 0 -840 0 0 -840z
m1440 0 l0 -600 -600 0 -600 0 0 600 0 600 600 0 600 0 0 -600z"/>
<path d="M480 6120 l0 -360 360 0 360 0 0 360 0 360 -360 0 -360 0 0 -360z"/>
<path d="M1920 6840 l0 -120 240 0 240 0 0 120 0 120 -240 0 -240 0 0 -120z"/>
<path d="M3120 6720 l0 -240 -240 0 -240 0 0 -240 0 -240 -120 0 -120 0 0 120
0 120 -120 0 -120 0 0 120 0 120 -120 0 -120 0 0 -360 0 -360 120 0 120 0 0
-120 0 -120 -120 0 -120 0 0 -120 0 -120 120 0 120 0 0 -120 0 -120 -120 0
-120 0 0 -120 0 -120 -120 0 -120 0 0 120 0 120 -120 0 -120 0 0 -120 0 -120
120 0 120 0 0 -120 0 -120 -120 0 -120 0 0 -120 0 -120 -120 0 -120 0 0 120 0
120 -120 0 -120 0 0 240 0 240 -480 0 -480 0 0 -480 0 -480 120 0 120 0 0 360
0 360 240 0 240 0 0 -120 0 -120 120 0 120 0 0 -120 0 -120 -240 0 -240 0 0
-480 0 -480 -120 0 -120 0 0 -120 0 -120 -120 0 -120 0 0 -120 0 -120 240 0
240 0 0 -120 0 -120 120 0 120 0 0 120 0 120 -120 0 -120 0 0 120 0 120 120 0
120 0 0 120 0 120 120 0 120 0 0 -480 0 -480 -240 0 -240 0 0 -120 0 -120
-120 0 -120 0 0 -120 0 -120 120 0 120 0 0 120 0 120 240 0 240 0 0 -120 0
-120 120 0 120 0 0 120 0 120 120 0 120 0 0 -120 0 -120 120 0 120 0 0 120 0
120 -120 0 -120 0 0 120 0 120 120 0 120 0 0 120 0 120 120 0 120 0 0 480 0
480 -240 0 -240 0 0 -120 0 -120 120 0 120 0 0 -120 0 -120 -240 0 -240 0 0
360 0 360 -240 0 -240 0 0 120 0 120 360 0 360 0 0 -120 0 -120 240 0 240 0 0
240 0 240 120 0 120 0 0 120 0 120 120 0 120 0 0 120 0 120 -120 0 -120 0 0
120 0 120 120 0 120 0 0 120 0 120 120 0 120 0 0 -120 0 -120 120 0 120 0 0
120 0 120 120 0 120 0 0 240 0 240 120 0 120 0 0 -360 0 -360 240 0 240 0 0
120 0 120 120 0 120 0 0 -240 0 -240 -120 0 -120 0 0 -360 0 -360 -120 0 -120
0 0 120 0 120 -120 0 -120 0 0 240 0 240 -120 0 -120 0 0 -240 0 -240 -240 0
-240 0 0 -240 0 -240 -120 0 -120 0 0 120 0 120 -120 0 -120 0 0 -240 0 -240
120 0 120 0 0 -120 0 -120 -120 0 -120 0 0 -600 0 -600 -120 0 -120 0 0 -240
0 -240 240 0 240 0 0 120 0 120 -120 0 -120 0 0 120 0 120 120 0 120 0 0 120
0 120 240 0 240 0 0 -120 0 -120 -120 0 -120 0 0 -120 0 -120 120 0 120 0 0
-120 0 -120 -120 0 -120 0 0 -120 0 -120 360 0 360 0 0 120 0 120 120 0 120 0
0 120 0 120 120 0 120 0 0 -360 0 -360 120 0 120 0 0 240 0 240 120 0 120 0 0
-240 0 -240 240 0 240 0 0 -120 0 -120 120 0 120 0 0 -240 0 -240 -120 0 -120
0 0 120 0 120 -120 0 -120 0 0 -120 0 -120 -120 0 -120 0 0 240 0 240 -360 0
-360 0 0 120 0 120 -120 0 -120 0 0 -240 0 -240 -120 0 -120 0 0 240 0 240
-120 0 -120 0 0 -120 0 -120 -240 0 -240 0 0 120 0 120 -120 0 -120 0 0 -120
0 -120 -120 0 -120 0 0 -480 0 -480 240 0 240 0 0 240 0 240 -120 0 -120 0 0
120 0 120 240 0 240 0 0 -240 0 -240 120 0 120 0 0 -120 0 -120 120 0 120 0 0
120 0 120 -120 0 -120 0 0 240 0 240 120 0 120 0 0 -120 0 -120 120 0 120 0 0
-240 0 -240 240 0 240 0 0 120 0 120 120 0 120 0 0 120 0 120 120 0 120 0 0
-240 0 -240 480 0 480 0 0 120 0 120 120 0 120 0 0 -120 0 -120 120 0 120 0 0
360 0 360 240 0 240 0 0 -120 0 -120 -120 0 -120 0 0 -240 0 -240 120 0 120 0
0 240 0 240 120 0 120 0 0 -240 0 -240 120 0 120 0 0 240 0 240 120 0 120 0 0
240 0 240 -120 0 -120 0 0 -240 0 -240 -120 0 -120 0 0 120 0 120 -120 0 -120
0 0 120 0 120 120 0 120 0 0 120 0 120 120 0 120 0 0 240 0 240 120 0 120 0 0
120 0 120 -240 0 -240 0 0 360 0 360 120 0 120 0 0 360 0 360 120 0 120 0 0
240 0 240 -240 0 -240 0 0 120 0 120 -240 0 -240 0 0 -120 0 -120 120 0 120 0
0 -240 0 -240 120 0 120 0 0 -240 0 -240 -120 0 -120 0 0 120 0 120 -240 0
-240 0 0 120 0 120 -120 0 -120 0 0 240 0 240 120 0 120 0 0 240 0 240 120 0
120 0 0 240 0 240 240 0 240 0 0 120 0 120 -360 0 -360 0 0 -120 0 -120 -240
0 -240 0 0 120 0 120 -360 0 -360 0 0 -120 0 -120 -120 0 -120 0 0 240 0 240
120 0 120 0 0 120 0 120 120 0 120 0 0 -120 0 -120 120 0 120 0 0 120 0 120
-120 0 -120 0 0 480 0 480 120 0 120 0 0 240 0 240 -240 0 -240 0 0 -120 0
-120 -240 0 -240 0 0 120 0 120 -120 0 -120 0 0 -360 0 -360 120 0 120 0 0
-120 0 -120 -240 0 -240 0 0 120 0 120 -120 0 -120 0 0 360 0 360 -120 0 -120
0 0 -240z m1680 -120 l0 -120 -120 0 -120 0 0 120 0 120 120 0 120 0 0 -120z
m-480 -240 l0 -120 120 0 120 0 0 -360 0 -360 -120 0 -120 0 0 -120 0 -120
-120 0 -120 0 0 120 0 120 120 0 120 0 0 360 0 360 -120 0 -120 0 0 120 0 120
120 0 120 0 0 -120z m-1200 -360 l0 -240 -120 0 -120 0 0 -240 0 -240 -120 0
-120 0 0 120 0 120 -120 0 -120 0 0 -120 0 -120 -120 0 -120 0 0 120 0 120
120 0 120 0 0 120 0 120 240 0 240 0 0 240 0 240 120 0 120 0 0 -240z m720
-480 l0 -240 -120 0 -120 0 0 240 0 240 120 0 120 0 0 -240z m-1920 -1080 l0
-120 -120 0 -120 0 0 -120 0 -120 -120 0 -120 0 0 120 0 120 120 0 120 0 0
120 0 120 120 0 120 0 0 -120z m2400 0 l0 -120 120 0 120 0 0 120 0 120 360 0
360 0 0 -120 0 -120 -120 0 -120 0 0 -120 0 -120 240 0 240 0 0 -120 0 -120
-240 0 -240 0 0 -120 0 -120 120 0 120 0 0 -120 0 -120 -120 0 -120 0 0 120 0
120 -120 0 -120 0 0 360 0 360 -120 0 -120 0 0 -600 0 -600 120 0 120 0 0
-240 0 -240 120 0 120 0 0 120 0 120 120 0 120 0 0 120 0 120 120 0 120 0 0
-360 0 -360 120 0 120 0 0 240 0 240 120 0 120 0 0 -120 0 -120 120 0 120 0 0
-240 0 -240 -120 0 -120 0 0 120 0 120 -120 0 -120 0 0 -120 0 -120 -240 0
-240 0 0 120 0 120 -120 0 -120 0 0 -120 0 -120 -120 0 -120 0 0 -240 0 -240
-120 0 -120 0 0 120 0 120 -120 0 -120 0 0 120 0 120 240 0 240 0 0 120 0 120
-240 0 -240 0 0 240 0 240 -120 0 -120 0 0 -120 0 -120 -120 0 -120 0 0 240 0
240 -120 0 -120 0 0 -600 0 -600 -120 0 -120 0 0 120 0 120 -120 0 -120 0 0
240 0 240 120 0 120 0 0 120 0 120 -240 0 -240 0 0 -120 0 -120 -120 0 -120 0
0 120 0 120 -120 0 -120 0 0 240 0 240 120 0 120 0 0 120 0 120 120 0 120 0 0
240 0 240 360 0 360 0 0 -120 0 -120 -240 0 -240 0 0 -120 0 -120 120 0 120 0
0 -120 0 -120 120 0 120 0 0 120 0 120 240 0 240 0 0 120 0 120 -120 0 -120 0
0 120 0 120 120 0 120 0 0 240 0 240 120 0 120 0 0 -120z m-2640 -1680 l0
-120 -120 0 -120 0 0 -120 0 -120 -120 0 -120 0 0 240 0 240 240 0 240 0 0
-120z m2400 -480 l0 -120 -120 0 -120 0 0 120 0 120 120 0 120 0 0 -120z
m1680 -720 l0 -360 -360 0 -360 0 0 360 0 360 360 0 360 0 0 -360z m720 -120
l0 -240 -120 0 -120 0 0 -120 0 -120 -120 0 -120 0 0 120 0 120 120 0 120 0 0
240 0 240 120 0 120 0 0 -240z m-960 -720 l0 -240 -120 0 -120 0 0 240 0 240
120 0 120 0 0 -240z m-1680 -120 l0 -120 -240 0 -240 0 0 120 0 120 240 0 240
0 0 -120z"/>
<path d="M4080 3960 l0 -120 120 0 120 0 0 120 0 120 -120 0 -120 0 0 -120z"/>
<path d="M2880 3360 l0 -240 -120 0 -120 0 0 -120 0 -120 120 0 120 0 0 120 0
120 240 0 240 0 0 120 0 120 -120 0 -120 0 0 120 0 120 -120 0 -120 0 0 -240z"/>
<path d="M4320 3000 l0 -120 120 0 120 0 0 120 0 120 -120 0 -120 0 0 -120z"/>
<path d="M5280 1560 l0 -120 120 0 120 0 0 120 0 120 -120 0 -120 0 0 -120z"/>
<path d="M5280 6120 l0 -840 840 0 840 0 0 840 0 840 -840 0 -840 0 0 -840z
m1440 0 l0 -600 -600 0 -600 0 0 600 0 600 600 0 600 0 0 -600z"/>
<path d="M5760 6120 l0 -360 360 0 360 0 0 360 0 360 -360 0 -360 0 0 -360z"/>
<path d="M6720 4800 l0 -240 -240 0 -240 0 0 -120 0 -120 240 0 240 0 0 -120
0 -120 120 0 120 0 0 120 0 120 -120 0 -120 0 0 120 0 120 120 0 120 0 0 240
0 240 -120 0 -120 0 0 -240z"/>
<path d="M0 3720 l0 -120 120 0 120 0 0 120 0 120 -120 0 -120 0 0 -120z"/>
<path d="M0 2520 l0 -120 120 0 120 0 0 120 0 120 -120 0 -120 0 0 -120z"/>
<path d="M0 840 l0 -840 840 0 840 0 0 840 0 840 -840 0 -840 0 0 -840z m1440
0 l0 -600 -600 0 -600 0 0 600 0 600 600 0 600 0 0 -600z"/>
<path d="M480 840 l0 -360 360 0 360 0 0 360 0 360 -360 0 -360 0 0 -360z"/>
</g>
</g></svg>
